<svg width="25" height="31" viewBox="0 0 25 31" fill="none" xmlns="http://www.w3.org/2000/svg">
<path d="M10.0308 4.87061C9.99315 4.81773 9.95549 4.76486 9.90729 4.69629C9.89209 4.67192 9.88489 4.66823 9.87512 4.66954C9.85667 4.64247 9.83821 4.61539 9.80487 4.56957C9.63848 4.37064 9.48697 4.19046 9.33546 4.01028C9.33546 4.01028 9.3235 4.01036 9.32651 3.99679C9.17491 3.78642 9.02209 3.58816 8.86415 3.39406C8.83343 3.35631 8.7835 3.31115 8.74124 3.30991C8.57863 3.30514 8.41474 3.28108 8.25589 3.35711C7.3228 3.80371 6.4622 4.35697 5.69847 5.05882C4.44965 6.2064 3.54813 7.5795 3.0072 9.1871C2.84766 9.6612 2.70364 10.1403 2.64063 10.6393C2.63595 10.6568 2.63126 10.6743 2.62055 10.7155C2.61188 10.772 2.60924 10.8047 2.6066 10.8375C2.5998 10.867 2.59301 10.8965 2.57941 10.9536C2.56746 11.052 2.56232 11.1229 2.55717 11.1937C2.55334 11.2113 2.5495 11.2288 2.53974 11.2729C2.51867 11.4491 2.50353 11.5988 2.48839 11.7485C2.48557 12.2251 2.48274 12.7018 2.48098 13.21C2.49122 13.298 2.50039 13.3546 2.50957 13.4111C2.5127 13.4671 2.51583 13.5231 2.52156 13.6061C2.53295 13.6646 2.54174 13.6961 2.55052 13.7276C2.55468 13.7838 2.55884 13.84 2.56582 13.921C2.57564 13.9656 2.58264 13.9853 2.58964 14.0051C2.59234 14.0483 2.59504 14.0914 2.60036 14.1594C2.61094 14.204 2.61891 14.2238 2.62688 14.2436C2.64048 14.3393 2.65408 14.435 2.6714 14.558C2.68677 14.6161 2.69842 14.647 2.71007 14.6779C2.79 14.9892 2.84928 15.3076 2.9549 15.6099C3.09995 16.0251 3.28011 16.428 3.45453 16.8599C3.48657 16.9195 3.50932 16.9554 3.53207 16.9912C3.54922 17.0337 3.56637 17.0762 3.59057 17.1363C3.60092 17.1636 3.60772 17.1692 3.61802 17.1703C3.61802 17.1703 3.617 17.1734 3.6195 17.1864C3.64552 17.2337 3.66904 17.2681 3.69257 17.3024C3.91955 17.6648 4.14654 18.0273 4.38307 18.4043C4.39262 18.4189 4.40006 18.4268 4.40006 18.4268L4.41092 18.4263C4.41092 18.4263 4.41193 18.4357 4.41951 18.4498C4.49908 18.5523 4.57107 18.6406 4.64307 18.7289C4.67639 18.7753 4.70972 18.8217 4.75711 18.8865C4.99408 19.1462 5.21264 19.3917 5.44163 19.6269C5.56441 19.7531 5.70514 19.8618 5.83777 19.9784C5.84734 19.9906 5.85691 20.0028 5.88181 20.0303C5.92909 20.0661 5.96106 20.0867 5.99302 20.1072C6.00167 20.1177 6.01032 20.1282 6.03462 20.1533C6.24325 20.3127 6.43624 20.4574 6.62922 20.6021C6.69354 20.6485 6.75786 20.6949 6.84117 20.7552C6.8881 20.7862 6.91606 20.8033 6.94402 20.8204C7.01924 20.9156 6.95515 21.0116 6.93952 21.1308C6.93291 21.1751 6.93219 21.1959 6.93147 21.2167C6.89673 21.3778 6.86198 21.5389 6.82147 21.7243C6.81503 21.7695 6.81434 21.7902 6.81365 21.8109C6.76463 22.0376 6.71561 22.2643 6.66027 22.5155C6.65165 22.5611 6.64936 22.5822 6.64707 22.6032C6.64146 22.6206 6.63584 22.638 6.62392 22.6774C6.61567 22.7201 6.61374 22.741 6.6118 22.7618C6.58989 22.8562 6.56798 22.9506 6.53782 23.0728C6.51445 23.1675 6.50699 23.2375 6.48093 23.2998C6.46786 23.331 6.4209 23.3481 6.38926 23.3716C6.31959 23.3274 6.24992 23.2832 6.1591 23.2263C6.09169 23.1902 6.04543 23.1667 5.99917 23.1433C5.93471 23.0988 5.87024 23.0542 5.78638 22.9957C5.68456 22.9338 5.60215 22.8857 5.51973 22.8376C5.48891 22.8133 5.45808 22.789 5.40925 22.7509C5.35503 22.7171 5.3188 22.6972 5.28258 22.6773C5.19916 22.6146 5.11574 22.5518 5.0134 22.4739C4.91789 22.4019 4.8413 22.3452 4.76471 22.2885C4.75052 22.2738 4.73633 22.2592 4.70615 22.2311C4.66266 22.2005 4.63516 22.1833 4.60766 22.1661C4.58293 22.1428 4.5582 22.1195 4.52126 22.0846C4.50341 22.0653 4.49622 22.0634 4.48746 22.0673C4.48746 22.0673 4.4794 22.0538 4.47409 22.0472C4.46877 22.0407 4.45851 22.0423 4.45851 22.0423C4.3907 21.9819 4.32288 21.9216 4.24322 21.8495C4.23138 21.8379 4.21672 21.8373 4.21672 21.8373C3.86873 21.4882 3.52074 21.139 3.16438 20.7795C3.15602 20.7691 3.14637 20.7683 3.14637 20.7683C3.08839 20.6965 3.03041 20.6247 2.95719 20.5341C2.90636 20.4811 2.87076 20.4467 2.83516 20.4124C2.83516 20.4124 2.82978 20.4239 2.83023 20.4057C2.77872 20.3304 2.72677 20.2733 2.67482 20.2163C2.67482 20.2163 2.67052 20.2251 2.6712 20.2088C2.64446 20.1618 2.61704 20.1311 2.58961 20.1004C2.55801 20.0529 2.52641 20.0054 2.48122 19.9393C2.42957 19.8754 2.39152 19.8301 2.35347 19.7849C2.35347 19.7849 2.35134 19.79 2.35063 19.7747C2.30169 19.6993 2.25345 19.6392 2.20521 19.579C2.20521 19.579 2.19671 19.5769 2.1986 19.5646C2.15634 19.4906 2.11218 19.429 2.06802 19.3673C2.01254 19.2747 1.95706 19.1821 1.88901 19.0705C1.8622 19.034 1.84795 19.0165 1.8337 18.999C1.8337 18.999 1.83448 18.9976 1.83156 18.9841C1.75098 18.8475 1.67331 18.7246 1.59564 18.6016C1.58757 18.5803 1.5795 18.559 1.56145 18.517C1.51503 18.4356 1.47859 18.3748 1.44216 18.3141C1.43612 18.2951 1.43009 18.2761 1.41745 18.2428C1.41085 18.2284 1.3966 18.2204 1.3966 18.2204C1.39211 18.2061 1.38762 18.1918 1.37268 18.1586C1.34849 18.1205 1.33475 18.1013 1.321 18.0821C1.24575 17.9194 1.1705 17.7566 1.08655 17.5698C1.0538 17.5011 1.02975 17.4565 1.00571 17.4119C0.984611 17.3524 0.963513 17.293 0.93281 17.2095C0.8854 17.0979 0.847593 17.0103 0.809787 16.9228C0.809787 16.9228 0.810753 16.9086 0.806995 16.8906C0.789554 16.8438 0.775869 16.815 0.762182 16.7862C0.761783 16.7782 0.761384 16.7701 0.756114 16.7381C0.726436 16.657 0.701627 16.6 0.676818 16.543C0.638472 16.4196 0.600124 16.2962 0.556226 16.1487C0.540772 16.1057 0.53087 16.0868 0.520967 16.0679C0.489461 15.9436 0.457956 15.8192 0.418931 15.6684C0.396622 15.5985 0.381832 15.5551 0.367041 15.5117C0.350002 15.4256 0.332962 15.3394 0.312379 15.2307C0.301752 15.1927 0.294667 15.1771 0.287583 15.1615C0.284662 15.1295 0.281741 15.0975 0.275033 15.0408C0.262385 14.9969 0.253524 14.9776 0.244664 14.9584C0.243483 14.9399 0.242302 14.9215 0.237623 14.8801C0.225497 14.8377 0.216868 14.8182 0.20824 14.7988C0.204249 14.7556 0.200259 14.7124 0.192743 14.6449C0.181348 14.6011 0.173479 14.5816 0.165609 14.5622C0.154079 14.4665 0.142548 14.3707 0.128625 14.2443C0.118729 14.1839 0.111227 14.1543 0.107838 14.1146C0.104697 14.0851 0.097441 14.0655 0.0921869 14.03C0.0875276 13.9718 0.08087 13.9297 0.0774789 13.8731C0.0700475 13.8024 0.0593495 13.7463 0.0486504 13.6901C0.0449474 13.6081 0.0412444 13.5262 0.0361318 13.4135C0.0259706 13.3137 0.0172202 13.2445 0.00846987 13.1754C0.00701672 12.8836 0.00556477 12.5918 0.00504372 12.2658C0.00398226 12.1759 0.00199114 12.12 0 12.0642C0.00502317 11.9701 0.0100463 11.876 0.0197493 11.7518C0.0254302 11.6511 0.0264312 11.5805 0.0274334 11.5099C0.0363808 11.429 0.0453282 11.3481 0.059497 11.239C0.0649591 11.1675 0.0651984 11.1242 0.0723506 11.065C0.0826701 10.9913 0.0860769 10.9336 0.0961885 10.8674C0.101217 10.8386 0.0995398 10.8182 0.105892 10.7843C0.115773 10.7397 0.117627 10.7087 0.11948 10.6777C0.123899 10.6593 0.128317 10.6409 0.135951 10.6062C0.139165 10.5898 0.141899 10.5795 0.141899 10.5795L0.132498 10.5746C0.144632 10.5153 0.156766 10.4559 0.174423 10.3701C0.179372 10.3229 0.178799 10.3023 0.178225 10.2817C0.192982 10.2151 0.207739 10.1485 0.231257 10.0523C0.25073 9.9527 0.261444 9.8826 0.272158 9.8125C0.272158 9.8125 0.273888 9.8015 0.279632 9.7912C0.290679 9.7498 0.295982 9.7187 0.301286 9.6876C0.323021 9.6055 0.344754 9.5234 0.373194 9.4176C0.381993 9.3727 0.384086 9.3517 0.393505 9.3186C0.404773 9.2789 0.408715 9.2512 0.412657 9.2236C0.425077 9.1896 0.437498 9.1557 0.458362 9.0969C0.495368 8.9782 0.522656 8.8838 0.552737 8.7904C0.630841 8.5478 0.710174 8.3056 0.789016 8.0632C0.807428 8.0201 0.82584 7.9771 0.854799 7.9107C0.99235 7.5905 1.11935 7.2937 1.24635 6.9969C1.27138 6.9524 1.2964 6.9078 1.33334 6.8427C1.36461 6.7751 1.38395 6.7281 1.40329 6.6811C1.40329 6.6811 1.40221 6.6772 1.41338 6.6719C1.69325 6.2247 1.95701 5.77982 2.23279 5.34252C2.36501 5.13285 2.51998 4.93753 2.66465 4.73572C2.66465 4.73572 2.66632 4.73609 2.67769 4.72947C3.14612 4.16232 3.63003 3.62729 4.17859 3.15363C4.36193 2.99533 4.54516 2.8369 4.72844 2.67853C4.72844 2.67853 4.72603 2.67657 4.7404 2.67486C4.80242 2.6379 4.85049 2.60321 4.89765 2.56732C5.57143 2.05463 6.29013 1.61508 7.05088 1.2439C8.24074 0.663338 9.49797 0.312218 10.8055 0.121708C12.0103 -0.0538116 13.2127 -0.0361813 14.4112 0.153229C15.4567 0.318459 16.4683 0.611558 17.4398 1.03778C19.0564 1.74698 20.4717 2.73748 21.6615 4.0452C21.8254 4.22531 21.9894 4.40533 22.1533 4.58539C22.197 4.64588 22.2407 4.70637 22.2993 4.78636C22.4593 4.99424 22.6044 5.18262 22.7496 5.371C22.7496 5.371 22.7508 5.37005 22.7526 5.38337C22.791 5.44542 22.8275 5.49415 22.864 5.54289C22.8725 5.56144 22.8809 5.57999 22.9009 5.61669C22.963 5.70645 23.0135 5.77807 23.0639 5.84969C23.0639 5.84969 23.0661 5.8452 23.0661 5.85956C23.0982 5.92096 23.1303 5.968 23.1624 6.015C23.1858 6.0604 23.2092 6.1057 23.2458 6.1732C23.4446 6.5415 23.6302 6.8875 23.8158 7.2336C23.8391 7.292 23.8623 7.3505 23.8945 7.4323C23.9272 7.5003 23.951 7.5449 23.9748 7.5896C23.9914 7.6375 24.0079 7.6855 24.0348 7.7575C24.075 7.8495 24.1049 7.9174 24.1348 7.9853C24.1578 8.0566 24.1808 8.128 24.2119 8.2244C24.2438 8.307 24.2676 8.3646 24.2913 8.4221C24.3031 8.4664 24.3149 8.5107 24.3334 8.5818C24.3778 8.7176 24.4156 8.8267 24.4533 8.9357C24.4764 9.0326 24.4996 9.1295 24.529 9.2521C24.548 9.3089 24.5606 9.34 24.5732 9.3711C24.6078 9.5338 24.6424 9.6965 24.6829 9.8876C24.7033 9.9719 24.7178 10.0279 24.7324 10.0839C24.7499 10.2059 24.7674 10.3279 24.7883 10.4748C24.799 10.5193 24.8062 10.539 24.8134 10.5586C24.8168 10.6146 24.8201 10.6706 24.8262 10.7571C24.8499 10.9095 24.8708 11.0313 24.8917 11.1532C24.8914 11.1712 24.891 11.1891 24.8922 11.2369C24.9065 11.374 24.9192 11.4813 24.9318 11.5887C24.9326 11.6441 24.9334 11.6995 24.9344 11.7893C24.9415 12.1814 24.9483 12.5392 24.9551 12.8971C24.9457 13.0304 24.9363 13.1637 24.9218 13.3286C24.9112 13.4566 24.9056 13.5532 24.9001 13.6498C24.8958 13.6796 24.8914 13.7093 24.8812 13.7667C24.8613 13.918 24.8471 14.0418 24.833 14.1655C24.8246 14.2202 24.8162 14.2748 24.8026 14.3545C24.7971 14.4005 24.7968 14.4215 24.7965 14.4425C24.7875 14.4844 24.7785 14.5262 24.7623 14.5967C24.7278 14.7759 24.7004 14.9265 24.6731 15.0771C24.6655 15.1061 24.658 15.1352 24.6429 15.1912C24.5763 15.4476 24.5214 15.6781 24.4575 15.9062C24.033 17.422 23.3225 18.7938 22.3708 20.0439C22.2397 20.216 22.1112 20.39 21.9815 20.5632C21.9815 20.5632 21.9826 20.5664 21.969 20.5705C21.6804 20.8626 21.405 21.1504 21.1307 21.4392C21.0954 21.4764 21.0662 21.5192 21.0342 21.5595C21.0342 21.5595 21.0434 21.565 21.026 21.5653C20.9129 21.6577 20.8172 21.7499 20.7215 21.8421C20.7215 21.8421 20.7281 21.8469 20.7126 21.847C20.0078 22.4203 19.2941 22.9574 18.4806 23.3798C18.4473 23.2634 18.4207 23.1704 18.3941 23.0774C18.3823 23.0078 18.3706 22.9382 18.3549 22.8387C18.3242 22.7008 18.2973 22.5928 18.2705 22.4848C18.2687 22.4544 18.2669 22.4239 18.2617 22.3689C18.2494 22.325 18.2407 22.3057 18.232 22.2863C18.2296 22.2559 18.2272 22.2254 18.221 22.1708C18.2089 22.1271 18.2006 22.1077 18.1923 22.0882C18.192 22.0703 18.1917 22.0524 18.1885 22.006C18.1477 21.8166 18.1098 21.6557 18.0719 21.4948C18.0684 21.4613 18.065 21.4279 18.0569 21.3743C18.0513 21.3446 18.0462 21.3382 18.0371 21.3349C18.0364 21.3171 18.0357 21.2993 18.0327 21.2533C18.0188 21.1609 18.0147 21.0941 17.9939 21.033C17.9566 20.9231 17.9833 20.8482 18.0829 20.7854C18.1932 20.7159 18.2993 20.638 18.4004 20.5554C18.6426 20.3575 18.8808 20.1547 19.1207 19.954C19.1207 19.954 19.1374 19.948 19.15 19.9402C19.1722 19.927 19.1764 19.9187 19.175 19.9076C19.2011 19.8885 19.2273 19.8694 19.2714 19.8352C19.3488 19.758 19.4083 19.6958 19.4679 19.6336C19.4812 19.6321 19.4915 19.6257 19.514 19.6004C19.6976 19.4115 19.8751 19.2446 20.032 19.0602C20.2222 18.8365 20.395 18.5981 20.5754 18.3661C20.5754 18.3661 20.5726 18.3634 20.5853 18.3589C20.7974 18.0394 20.9968 17.7245 21.1963 17.4095C21.1963 17.4095 21.2042 17.405 21.2083 17.4009C21.2125 17.3969 21.2099 17.385 21.2099 17.385C21.2277 17.3563 21.2455 17.3275 21.2778 17.2749C21.3158 17.1994 21.3393 17.1476 21.3628 17.0958C21.3628 17.0958 21.3717 17.087 21.3821 17.0715C21.4357 16.9626 21.4789 16.8691 21.5287 16.7713C21.5434 16.7582 21.5449 16.7484 21.5398 16.7375C21.5615 16.6954 21.5832 16.6533 21.6156 16.5904C21.6301 16.5556 21.634 16.5416 21.6439 16.5254C21.657 16.515 21.6563 16.5075 21.6478 16.5008C21.6848 16.4187 21.7218 16.3366 21.7699 16.2304C21.8521 16.0012 21.9231 15.7961 21.9941 15.591C21.999 15.578 22.0039 15.565 22.0177 15.5308C22.0635 15.3778 22.1004 15.246 22.1372 15.1141C22.1436 15.0972 22.15 15.0802 22.1646 15.0388C22.1867 14.9419 22.2007 14.8695 22.2147 14.7972C22.2208 14.7798 22.2269 14.7625 22.2403 14.7199C22.2622 14.6099 22.2768 14.5251 22.2914 14.4403C22.2979 14.423 22.3043 14.4057 22.3179 14.3648C22.3263 14.3083 22.3275 14.2754 22.3288 14.2426C22.3364 14.2129 22.3439 14.1831 22.3581 14.1264C22.369 14.0416 22.3734 13.9837 22.3777 13.9259C22.3822 13.9081 22.3866 13.8903 22.3977 13.8473C22.4076 13.7642 22.411 13.7064 22.4144 13.6485C22.4209 13.6062 22.4274 13.5639 22.44 13.4933C22.4496 13.3942 22.4531 13.3233 22.4566 13.2525C22.4616 13.2224 22.4666 13.1923 22.4774 13.1338C22.4873 12.8625 22.4945 12.6197 22.4938 12.377C22.4935 12.2736 22.4767 12.1704 22.4673 12.067C22.4671 12.0113 22.4668 11.9555 22.466 11.8674C22.453 11.7406 22.4406 11.6462 22.4282 11.5519C22.4269 11.5088 22.4256 11.4657 22.4224 11.3942C22.4107 11.3219 22.4009 11.2779 22.3911 11.234C22.3882 11.1783 22.3853 11.1225 22.3803 11.0395C22.3687 10.9807 22.3591 10.9492 22.3495 10.9178C22.348 10.8855 22.3465 10.8532 22.3425 10.7952C22.3309 10.7413 22.3217 10.7133 22.3126 10.6853C22.3124 10.6722 22.3123 10.6591 22.307 10.6216C22.2829 10.5179 22.2638 10.4386 22.2447 10.3593C22.2206 10.2332 22.1964 10.1072 22.1686 9.9643C22.1651 9.9475 22.1539 9.9378 22.1539 9.9378C22.1518 9.9172 22.1498 9.8966 22.1437 9.8512C22.1295 9.8075 22.1194 9.7886 22.1093 9.7697C22.1059 9.7481 22.1025 9.7266 22.0944 9.6875C22.089 9.6612 22.0841 9.6567 22.0753 9.6564C22.0551 9.5825 22.035 9.5086 22.0077 9.4075C21.9606 9.2714 21.9205 9.1625 21.8804 9.0537C21.8628 8.9932 21.8452 8.9327 21.8176 8.8496C21.788 8.781 21.7683 8.735 21.7486 8.6891C21.7486 8.6891 21.7466 8.672 21.7384 8.6521C21.716 8.6075 21.7018 8.5828 21.6876 8.5581C21.6876 8.5581 21.6912 8.5473 21.6869 8.5284C21.6099 8.3483 21.544 8.1838 21.4632 8.0269C21.3587 7.824 21.2424 7.6273 21.1312 7.4279C21.1075 7.3822 21.0838 7.3365 21.0486 7.268C20.8303 6.9479 20.6235 6.6507 20.4166 6.3535C20.4172 6.3415 20.4133 6.3313 20.3926 6.3057C19.996 5.79578 19.568 5.34378 19.0965 4.93401C18.9491 4.80594 18.789 4.69248 18.6348 4.57233C18.6348 4.57233 18.6308 4.57585 18.6276 4.56264C18.5903 4.51835 18.5588 4.48368 18.5217 4.45671C17.9279 4.02516 17.3045 3.64156 16.6303 3.35027C16.4949 3.29177 16.3214 3.31761 16.1652 3.31436C16.1362 3.31376 16.1013 3.35608 16.0775 3.38543C15.8741 3.63651 15.6712 3.88801 15.4709 4.14158C15.0213 4.71081 14.5726 5.2807 14.1255 5.8519C14.0597 5.93595 13.9905 5.97267 13.8754 5.96897C13.5992 5.96008 13.3222 5.97451 13.0286 5.97462C12.9302 5.97317 12.8488 5.97663 12.7529 5.97565C12.7089 5.97412 12.6792 5.97704 12.6317 5.97497C12.4007 5.97319 12.1876 5.97638 11.9565 5.97514C11.6486 5.97113 11.3587 5.96904 11.0688 5.97336C10.9684 5.97485 10.8913 5.9462 10.8298 5.86452C10.7466 5.7542 10.6574 5.64845 10.5708 5.54071C10.3978 5.32543 10.2248 5.11014 10.0517 4.88855C10.0474 4.8735 10.0405 4.86962 10.0308 4.87061Z" fill="#007AFF"/>
<path d="M16.8116 21.2149C16.8411 21.3766 16.8706 21.5383 16.9038 21.7267C16.9168 21.7847 16.926 21.816 16.9352 21.8472C16.9496 21.9307 16.964 22.0141 16.9822 22.1219C16.9945 22.1658 17.0028 22.1853 17.0111 22.2048C17.0181 22.2532 17.025 22.3015 17.0355 22.3657C17.0391 22.3816 17.049 22.3907 17.049 22.3907C17.0523 22.4244 17.0557 22.4581 17.0628 22.517C17.0744 22.5618 17.0823 22.5815 17.0902 22.6011C17.0931 22.6318 17.096 22.6625 17.1027 22.7167C17.1144 22.7599 17.1223 22.7795 17.1301 22.7991C17.1365 22.8468 17.1429 22.8946 17.1528 22.9597C17.1562 22.977 17.1675 22.9872 17.1675 22.9872C17.1694 23.0088 17.1712 23.0304 17.1765 23.0785C17.1902 23.135 17.2005 23.1649 17.2108 23.1948C17.2169 23.2428 17.2229 23.2907 17.2322 23.3558C17.2354 23.3729 17.2466 23.3829 17.2466 23.3829C17.2479 23.4032 17.2492 23.4236 17.2538 23.4706C17.268 23.5286 17.2787 23.5599 17.2895 23.5913C17.2962 23.6397 17.3029 23.6881 17.3132 23.7521C17.3168 23.7677 17.3264 23.7768 17.3264 23.7768C17.3446 23.8768 17.3628 23.9769 17.3856 24.1053C17.4089 24.2038 17.4276 24.274 17.4463 24.3442C17.449 24.3747 17.4517 24.4052 17.4578 24.4596C17.469 24.5032 17.477 24.5229 17.485 24.5426C17.5077 24.6655 17.5305 24.7883 17.5575 24.941C17.5838 25.0674 17.6059 25.1641 17.6279 25.2607C17.6551 25.4249 17.6822 25.5891 17.7092 25.7735C17.7089 25.7937 17.7131 25.8017 17.7131 25.8017C17.7063 25.8093 17.6996 25.8168 17.6749 25.8425C17.6241 25.8962 17.5913 25.9319 17.5585 25.9676C17.5585 25.9676 17.561 25.9696 17.5477 25.9731C17.4362 26.0792 17.338 26.1819 17.2397 26.2846C17.2264 26.2854 17.2158 26.2913 17.1929 26.315C17.1457 26.3659 17.1136 26.4039 17.0816 26.442C17.0816 26.442 17.0849 26.445 17.0719 26.4476C17.0139 26.5004 16.969 26.5507 16.924 26.601C16.924 26.601 16.9271 26.6033 16.9136 26.6066C16.6963 26.8183 16.4926 27.0268 16.2888 27.2353C16.2754 27.2366 16.265 27.2429 16.243 27.2677C16.1961 27.3185 16.1638 27.3558 16.1315 27.3931C16.1315 27.3931 16.1347 27.3956 16.1211 27.3987C15.9912 27.5168 15.8734 27.6304 15.7588 27.747C15.5254 27.9846 15.2938 28.2238 15.0614 28.4624C15.0614 28.4624 15.0652 28.4646 15.0511 28.4667C14.8191 28.691 14.6011 28.9131 14.3831 29.1352C14.3704 29.1362 14.3607 29.142 14.3387 29.1658C14.2382 29.2692 14.1528 29.3595 14.0675 29.4498C14.0675 29.4498 14.0727 29.4533 14.0585 29.4544C13.9992 29.5063 13.954 29.5571 13.9088 29.608C13.9088 29.608 13.9146 29.612 13.9 29.613C13.8389 29.6652 13.7924 29.7164 13.7459 29.7677C13.4737 30.0329 13.2016 30.2981 12.9126 30.5804C12.874 30.6242 12.8522 30.6509 12.8304 30.6776C12.8195 30.6783 12.8111 30.6833 12.7907 30.7053C12.6911 30.8111 12.6061 30.9039 12.521 30.9968C12.505 30.9998 12.489 31.0028 12.4543 30.9951C12.3761 30.9236 12.3166 30.8627 12.2732 30.802C12.4098 30.8113 12.4515 30.7511 12.4523 30.6356C12.4536 30.4342 12.4252 30.2345 12.4464 30.0309C12.4712 29.7919 12.4615 29.5495 12.4685 29.3087C12.4718 29.1939 12.4825 29.0793 12.4837 28.9646C12.4851 28.8429 12.4803 28.721 12.4762 28.5993C12.4704 28.4256 12.4554 28.2519 12.458 28.0783C12.461 27.8819 12.4837 27.6858 12.489 27.4894C12.4935 27.3248 12.4873 27.1598 12.4823 26.995C12.4741 26.7283 12.4568 26.4618 12.4557 26.1951C12.455 26.0385 12.4863 25.8819 12.4888 25.725C12.4942 25.3754 12.4861 25.0255 12.4921 24.6759C12.4956 24.4729 12.5172 24.2702 12.5276 24.0673C12.531 24.0017 12.5277 23.9354 12.5224 23.8699C12.514 23.7657 12.4919 23.6618 12.4918 23.5578C12.49 21.1757 12.4904 18.7937 12.4903 16.4116C12.4903 16.3457 12.5056 16.2739 12.4852 16.2147C12.3824 15.9178 12.5074 15.618 12.4645 15.3177C12.4389 15.1389 12.5092 14.9491 12.4542 14.7635C12.4436 14.7276 12.4536 14.6849 12.4571 14.6456C12.4674 14.5284 12.4897 14.4112 12.4889 14.2941C12.478 12.7551 12.5165 11.216 12.4538 9.67713C12.4162 8.75583 12.4958 7.83223 12.4125 6.91093C12.3965 6.73473 12.3907 6.71813 12.2165 6.67193C12.1721 6.66013 12.1284 6.64443 12.0833 6.63763C12.0011 6.62513 11.9736 6.57443 11.9935 6.49423C12.5927 6.48933 13.1738 6.48903 13.7587 6.49453C13.7748 6.49983 13.787 6.49953 13.8058 6.50103C13.8123 6.50293 13.8259 6.50313 13.8259 6.50313C13.836 6.56513 13.8461 6.62713 13.8598 6.71243C13.8705 6.75513 13.8774 6.77453 13.8844 6.79393C13.8877 6.82493 13.891 6.85583 13.8978 6.91033C13.9089 6.95313 13.9164 6.97253 13.924 6.99193C13.9529 7.14113 13.9818 7.29023 14.0146 7.46383C14.0261 7.50793 14.0338 7.52743 14.0415 7.54693C14.0448 7.57783 14.0481 7.60863 14.0552 7.66303C14.0667 7.70583 14.0745 7.72523 14.0823 7.74463C14.0992 7.84113 14.1161 7.93753 14.1369 8.05823C14.1482 8.10173 14.1555 8.12103 14.1629 8.14043C14.1642 8.15913 14.1656 8.17783 14.1705 8.21903C14.1819 8.26113 14.1897 8.28073 14.1975 8.30033C14.1982 8.31843 14.1988 8.33653 14.2023 8.37963C14.2154 8.43603 14.2257 8.46743 14.2359 8.49883C14.2804 8.73953 14.325 8.98033 14.3734 9.24603C14.3846 9.29043 14.3919 9.30983 14.3992 9.32923C14.4004 9.34783 14.4016 9.36643 14.4061 9.40763C14.4182 9.44973 14.4269 9.46923 14.4356 9.48873C14.4522 9.58493 14.4688 9.68113 14.4893 9.80153C14.5007 9.84533 14.5083 9.86493 14.516 9.88453C14.5185 9.91523 14.521 9.94583 14.527 10.0003C14.5384 10.0437 14.5463 10.0634 14.5542 10.083C14.555 10.1011 14.5558 10.1193 14.5598 10.1623C14.5741 10.2182 14.5851 10.2492 14.5961 10.2803C14.6029 10.3293 14.6096 10.3783 14.6212 10.4412C14.626 10.4552 14.6328 10.4636 14.6328 10.4636C14.637 10.4982 14.6412 10.5328 14.6496 10.5926C14.6613 10.6373 14.6688 10.6568 14.6762 10.6762C14.6794 10.7072 14.6826 10.7381 14.6896 10.7926C14.7011 10.8354 14.7088 10.8547 14.7166 10.8741C14.7181 10.8927 14.7196 10.9114 14.7245 10.9525C14.7357 10.9946 14.7435 11.0144 14.7512 11.0341C14.756 11.0774 14.7608 11.1206 14.7697 11.188C14.7815 11.2314 14.7891 11.2506 14.7967 11.2699C14.8152 11.3678 14.8338 11.4657 14.8579 11.5921C14.8802 11.6888 14.8968 11.7569 14.9135 11.825C14.9334 11.9401 14.9532 12.0552 14.9767 12.1849C14.9804 12.1995 14.9893 12.2085 14.9893 12.2085C14.993 12.2425 14.9966 12.2766 15.0048 12.3399C15.0297 12.4521 15.0499 12.5351 15.0701 12.618C15.0865 12.7143 15.1029 12.8105 15.1235 12.931C15.1354 12.9747 15.1431 12.9942 15.1508 13.0137C15.1538 13.0447 15.1567 13.0756 15.1646 13.134C15.19 13.2442 15.2106 13.3268 15.2312 13.4094C15.2342 13.4404 15.2373 13.4714 15.2441 13.5259C15.2551 13.5689 15.2624 13.5885 15.2696 13.608C15.273 13.6388 15.2764 13.6697 15.2836 13.724C15.2951 13.7669 15.3028 13.7863 15.3104 13.8057C15.3137 13.8363 15.3169 13.8669 15.3247 13.9243C15.3479 14.022 15.3664 14.0928 15.3849 14.1637C15.3874 14.194 15.3898 14.2243 15.3957 14.2805C15.4094 14.3374 15.4197 14.3685 15.4299 14.3996C15.4333 14.4307 15.4367 14.4617 15.444 14.5162C15.4551 14.559 15.4622 14.5785 15.4693 14.5979C15.4811 14.668 15.4929 14.7381 15.5081 14.8351C15.522 14.8933 15.5326 14.9247 15.5432 14.956C15.5482 14.9993 15.5531 15.0425 15.5624 15.1099C15.5738 15.1533 15.581 15.1727 15.5882 15.1921C15.5927 15.2264 15.5972 15.2607 15.6053 15.3137C15.609 15.3408 15.6132 15.3456 15.6217 15.3466C15.6343 15.4181 15.6468 15.4895 15.6628 15.5892C15.679 15.6607 15.6917 15.704 15.7044 15.7474C15.7207 15.8437 15.737 15.94 15.7574 16.0605C15.7688 16.1044 15.7762 16.124 15.7836 16.1436C15.7866 16.1743 15.7896 16.2049 15.797 16.2631C15.8219 16.3737 15.8424 16.4567 15.8628 16.5397C15.8693 16.5875 15.8757 16.6353 15.8854 16.7006C15.8887 16.7181 15.8998 16.729 15.8998 16.729C15.9068 16.7788 15.9138 16.8287 15.9242 16.8975C15.9276 16.9165 15.9392 16.9283 15.9392 16.9283C15.9493 16.9881 15.9595 17.0479 15.9742 17.1361C15.9936 17.2202 16.0085 17.2758 16.0234 17.3315C16.0265 17.3624 16.0297 17.3934 16.0371 17.4478C16.0488 17.4906 16.0563 17.5099 16.0638 17.5293C16.0889 17.665 16.114 17.8008 16.1424 17.964C16.1561 18.0228 16.1667 18.0542 16.1772 18.0855C16.1818 18.1287 16.1863 18.1719 16.1951 18.2393C16.2067 18.2829 16.2142 18.3023 16.2218 18.3217C16.247 18.4573 16.2722 18.5929 16.3007 18.7561C16.3148 18.8152 16.3257 18.8466 16.3365 18.8781C16.357 18.9926 16.3776 19.1072 16.402 19.2366C16.4059 19.2514 16.4153 19.2604 16.4153 19.2604C16.4459 19.4266 16.4766 19.5928 16.5111 19.7838C16.5226 19.828 16.5302 19.8475 16.5378 19.8669C16.5415 19.8979 16.5453 19.9288 16.5528 19.9831C16.5637 20.0259 16.5709 20.0454 16.5781 20.0648C16.5812 20.0956 16.5842 20.1265 16.5917 20.1843C16.6152 20.2817 16.6344 20.352 16.6536 20.4224C16.6566 20.4529 16.6597 20.4834 16.666 20.5377C16.6775 20.5812 16.6856 20.6008 16.6938 20.6204C16.7199 20.769 16.7459 20.9176 16.7756 21.0937C16.79 21.1524 16.8008 21.1836 16.8116 21.2149Z" fill="#006CE2"/>
<path d="M11.9756 6.49886C11.9738 6.57446 12.0013 6.62516 12.0835 6.63766C12.1286 6.64446 12.1723 6.66016 12.2167 6.67186C12.3908 6.71806 12.3967 6.73476 12.4126 6.91096C12.496 7.83226 12.4164 8.75586 12.454 9.67716C12.5167 11.2161 12.4782 12.7552 12.4891 14.2942C12.4899 14.4112 12.4676 14.5284 12.4573 14.6457C12.4538 14.685 12.4438 14.7276 12.4544 14.7635C12.5093 14.9492 12.4391 15.1389 12.4646 15.3178C12.5076 15.6181 12.3826 15.9178 12.4853 16.2148C12.5058 16.274 12.4904 16.3458 12.4905 16.4117C12.4906 18.7938 12.4902 21.1758 12.492 23.5579C12.4921 23.6619 12.5141 23.7658 12.5226 23.87C12.5279 23.9355 12.5312 24.0018 12.5278 24.0674C12.5174 24.2703 12.4958 24.473 12.4923 24.676C12.4863 25.0256 12.4943 25.3755 12.489 25.7251C12.4865 25.8819 12.4552 26.0385 12.4559 26.1952C12.457 26.4618 12.4743 26.7284 12.4825 26.9951C12.4875 27.1598 12.4937 27.3248 12.4892 27.4894C12.4839 27.6859 12.4611 27.882 12.4582 28.0784C12.4556 28.252 12.4706 28.4257 12.4764 28.5994C12.4805 28.7211 12.4853 28.843 12.4839 28.9647C12.4827 29.0794 12.472 29.194 12.4687 29.3087C12.4617 29.5496 12.4714 29.792 12.4466 30.0309C12.4254 30.2346 12.4538 30.4343 12.4525 30.6357C12.4517 30.7512 12.41 30.8113 12.2645 30.7942C12.2196 30.773 12.1998 30.7599 12.1799 30.7468C12.1791 30.7359 12.1741 30.7275 12.1521 30.7075C12.0995 30.6598 12.0597 30.6263 12.02 30.5929C11.9099 30.4807 11.7998 30.3685 11.6739 30.239C11.633 30.2013 11.6079 30.181 11.5828 30.1606C11.5129 30.0867 11.443 30.0127 11.357 29.9212C11.3027 29.8707 11.2644 29.8376 11.2262 29.8045C11.2248 29.7918 11.2188 29.7819 11.1948 29.7598C11.0907 29.6593 10.9997 29.5739 10.9088 29.4886C10.8906 29.4662 10.8724 29.4439 10.84 29.4058C10.8006 29.37 10.7755 29.35 10.7504 29.3299C10.7491 29.3171 10.743 29.3071 10.7195 29.2857C10.6818 29.2512 10.6566 29.2312 10.6315 29.2112C10.5874 29.1631 10.5433 29.1151 10.4838 29.05C10.4301 29.0003 10.3919 28.9678 10.3537 28.9352C10.2957 28.874 10.2377 28.8128 10.1632 28.7344C10.0837 28.6579 10.0206 28.5988 9.95759 28.5396C9.62359 28.2008 9.2896 27.862 8.93931 27.5051C8.84553 27.4146 8.76806 27.3422 8.69059 27.2698C8.65824 27.2351 8.62589 27.2004 8.57774 27.15C8.531 27.1105 8.50005 27.0865 8.46911 27.0625C8.46911 27.0625 8.46544 27.0633 8.46238 27.0505C8.42996 27.0115 8.4006 26.9854 8.37125 26.9592C8.36912 26.9453 8.36219 26.9345 8.33672 26.9118C8.28634 26.8646 8.24969 26.8323 8.21304 26.8C8.1555 26.7375 8.09796 26.675 8.02405 26.5959C7.97058 26.547 7.93349 26.5148 7.8964 26.4825C7.89453 26.4688 7.88778 26.4581 7.86246 26.4357C7.81185 26.3886 7.77494 26.3563 7.73802 26.324C7.73611 26.3103 7.72935 26.2996 7.70406 26.2772C7.65331 26.2305 7.61625 26.1985 7.57919 26.1666C7.52083 26.1043 7.46247 26.0421 7.38652 25.9614C7.25581 25.8568 7.22706 25.7449 7.2625 25.6101C7.27221 25.5732 7.26851 25.5328 7.27096 25.4939C7.2813 25.4519 7.29165 25.4099 7.30836 25.3417C7.31848 25.2825 7.32223 25.2495 7.32599 25.2165C7.33102 25.1991 7.33606 25.1817 7.34819 25.1387C7.38166 24.9626 7.40803 24.8123 7.43439 24.6619C7.44281 24.6325 7.45123 24.6031 7.46568 24.5501C7.47298 24.5056 7.47426 24.4846 7.47553 24.4636C7.48373 24.4342 7.49192 24.4049 7.5074 24.3487C7.53968 24.1843 7.56467 24.0468 7.58966 23.9093C7.59855 23.8797 7.60743 23.8502 7.62184 23.7968C7.62719 23.7524 7.627 23.7317 7.62682 23.7111C7.6365 23.6816 7.64617 23.6521 7.66267 23.5952C7.68618 23.4701 7.70286 23.3724 7.71955 23.2747C7.72493 23.2574 7.73032 23.2401 7.74233 23.1993C7.75195 23.1429 7.75494 23.1101 7.75794 23.0772C7.76487 23.0479 7.7718 23.0185 7.78499 22.966C7.79353 22.9215 7.7958 22.9003 7.79807 22.8791C7.80342 22.8615 7.80877 22.844 7.82098 22.8005C7.85889 22.6113 7.88996 22.4482 7.92102 22.2851C7.92593 22.2676 7.93083 22.2502 7.94162 22.2111C7.94942 22.1684 7.95132 22.1473 7.95322 22.1263C7.96096 22.097 7.9687 22.0678 7.98371 22.0115C8.01883 21.8337 8.04666 21.683 8.0745 21.5322C8.07988 21.5147 8.08526 21.4971 8.09705 21.4558C8.10735 21.3994 8.11124 21.3668 8.11513 21.3341C8.12042 21.3166 8.12571 21.299 8.13775 21.2551C8.17509 21.0527 8.20567 20.8766 8.23624 20.7005C8.24123 20.6829 8.24622 20.6654 8.25867 20.6223C8.30833 20.3804 8.35054 20.1641 8.39275 19.9477C8.39814 19.9303 8.40353 19.9128 8.41612 19.8693C8.47786 19.5611 8.5324 19.279 8.58695 18.9969C8.59463 18.9676 8.60232 18.9384 8.61737 18.882C8.63828 18.7978 8.65419 18.7414 8.66499 18.6839C8.72978 18.3394 8.79339 17.9947 8.85739 17.65C8.86611 17.6205 8.87483 17.5909 8.89068 17.5336C8.93255 17.3161 8.96729 17.1265 9.00203 16.9368C9.00203 16.9368 9.00462 16.9354 9.00862 16.9318C9.01261 16.9283 9.0157 16.9184 9.0157 16.9184L9.00721 16.9123C9.01904 16.8663 9.03088 16.8202 9.04851 16.748C9.05571 16.701 9.05712 16.6802 9.05852 16.6595C9.06689 16.6301 9.07525 16.6007 9.0908 16.5439C9.12284 16.3794 9.1477 16.2424 9.17257 16.1053C9.1832 16.0635 9.19383 16.0217 9.21083 15.9554C9.2196 15.9097 9.222 15.8885 9.22439 15.8672C9.23124 15.838 9.2381 15.8088 9.25266 15.7527C9.30089 15.5089 9.34141 15.292 9.38194 15.0751C9.38896 15.0458 9.39599 15.0165 9.41041 14.96C9.44577 14.7822 9.47373 14.6315 9.50169 14.4808C9.50838 14.4515 9.51507 14.4222 9.52804 14.3696C9.53668 14.3252 9.53903 14.3039 9.54138 14.2827C9.54648 14.2652 9.55158 14.2477 9.56389 14.2043C9.59881 14.0284 9.62652 13.8782 9.65422 13.7281C9.66209 13.6987 9.66996 13.6692 9.68386 13.6163C9.69129 13.5719 9.69268 13.5509 9.69407 13.5299C9.70237 13.5007 9.71065 13.4714 9.72627 13.4148C9.76138 13.237 9.78916 13.0864 9.81695 12.9359C9.8237 12.9064 9.83046 12.8769 9.84448 12.82C9.88985 12.5895 9.92795 12.3864 9.96606 12.1833C9.97484 12.1539 9.98362 12.1244 9.99785 12.0659C10.0478 11.8084 10.0923 11.5799 10.1368 11.3514C10.1416 11.3338 10.1464 11.3162 10.157 11.2766C10.1632 11.2341 10.1639 11.2134 10.1645 11.1927C10.1735 11.1635 10.1825 11.1342 10.1983 11.0775C10.2228 10.9522 10.2406 10.8545 10.2583 10.7567C10.2632 10.7394 10.268 10.7221 10.2786 10.683C10.2846 10.6403 10.285 10.6194 10.2853 10.5985C10.2938 10.5691 10.3023 10.5396 10.3172 10.4847C10.3277 10.4265 10.3318 10.3937 10.3358 10.3609C10.3411 10.3436 10.3463 10.3262 10.3589 10.2831C10.4265 9.97076 10.488 9.68446 10.5465 9.39756C10.5697 9.28356 10.5862 9.16826 10.6058 9.05356C10.6135 9.02416 10.6212 8.99466 10.6356 8.94006C10.6458 8.88196 10.6493 8.84896 10.6528 8.81596C10.6579 8.79846 10.6631 8.78106 10.6756 8.73806C10.7123 8.54886 10.7417 8.38536 10.771 8.22176C10.7759 8.20416 10.7807 8.18646 10.7928 8.14316C10.8405 7.90136 10.8809 7.68516 10.9213 7.46896C10.9294 7.43946 10.9374 7.40996 10.9532 7.35346C11.0068 7.13686 11.0527 6.94716 11.1107 6.75006C11.2316 6.64056 11.3565 6.58616 11.5094 6.59676C11.6071 6.60356 11.7057 6.59666 11.8038 6.59806C11.8719 6.59896 11.8963 6.56196 11.9093 6.49536C11.94 6.49326 11.9578 6.49606 11.9756 6.49886Z" fill="#007AFF"/>
</svg>
